<svg width="24" height="24" viewBox="0 0 24 24" fill="none" xmlns="http://www.w3.org/2000/svg">
<path d="M20.5004 7.98899C20.3665 7.85816 20.1867 7.78491 19.9994 7.78491C19.8122 7.78491 19.6324 7.85816 19.4984 7.98899L11.9999 15.2985L4.50294 7.98899C4.36899 7.85816 4.18918 7.78491 4.00194 7.78491C3.8147 7.78491 3.63488 7.85816 3.50094 7.98899C3.43562 8.05259 3.38371 8.12862 3.34826 8.21261C3.31281 8.29659 3.29455 8.38683 3.29455 8.47799C3.29455 8.56915 3.31281 8.65939 3.34826 8.74338C3.38371 8.82736 3.43562 8.9034 3.50094 8.96699L11.4764 16.74C11.6165 16.8765 11.8043 16.9529 11.9999 16.9529C12.1955 16.9529 12.3834 16.8765 12.5234 16.74L20.4989 8.96699C20.5643 8.9034 20.6162 8.82736 20.6516 8.74338C20.6871 8.65939 20.7053 8.56915 20.7053 8.47799C20.7053 8.38683 20.6871 8.29659 20.6516 8.21261C20.6162 8.12862 20.5643 8.05259 20.4989 7.98899L20.5004 7.98899Z" fill="white"/>
</svg>
