<svg width="42" height="42" viewBox="0 0 42 42" fill="none" xmlns="http://www.w3.org/2000/svg">
<path d="M28.3 17.925L24.05 13.725L25.45 12.325C25.8333 11.9417 26.3043 11.75 26.863 11.75C27.421 11.75 27.8917 11.9417 28.275 12.325L29.675 13.725C30.0583 14.1083 30.2583 14.571 30.275 15.113C30.2917 15.6543 30.1083 16.1167 29.725 16.5L28.3 17.925ZM13 30C12.7167 30 12.4793 29.904 12.288 29.712C12.096 29.5207 12 29.2833 12 29V26.175C12 26.0417 12.025 25.9127 12.075 25.788C12.125 25.6627 12.2 25.55 12.3 25.45L22.6 15.15L26.85 19.4L16.55 29.7C16.45 29.8 16.3377 29.875 16.213 29.925C16.0877 29.975 15.9583 30 15.825 30H13Z" fill="white"/>
<rect x="1" y="1" width="40" height="40" rx="8" stroke="white"/>
</svg>
