<svg width="42" height="42" viewBox="0 0 42 42" fill="none" xmlns="http://www.w3.org/2000/svg">
<path d="M16.9269 28.6303C16.7325 28.6303 16.5502 28.5996 16.38 28.5384C16.2099 28.4781 16.0519 28.375 15.9061 28.2292L9.63525 21.9584C9.36789 21.691 9.24004 21.3444 9.25171 20.9186C9.26435 20.4937 9.40435 20.1476 9.67171 19.8802C9.93907 19.6129 10.2793 19.4792 10.6925 19.4792C11.1057 19.4792 11.446 19.6129 11.7134 19.8802L16.9269 25.0938L29.2863 12.7344C29.5537 12.4671 29.9003 12.3334 30.3261 12.3334C30.7509 12.3334 31.0971 12.4671 31.3644 12.7344C31.6318 13.0018 31.7655 13.3479 31.7655 13.7727C31.7655 14.1986 31.6318 14.5452 31.3644 14.8125L17.9478 28.2292C17.8019 28.375 17.6439 28.4781 17.4738 28.5384C17.3037 28.5996 17.1214 28.6303 16.9269 28.6303Z" fill="white"/>
<rect x="1" y="1" width="40" height="40" rx="8" stroke="white"/>
</svg>
